<svg version="1.1" id="Layer_1" xmlns="http://www.w3.org/2000/svg" x="0" y="0" viewBox="0 0 500 500" xml:space="preserve"><style>.st1{fill:#fff}</style><g id="XMLID_1_"><radialGradient id="XMLID_37_" cx="92.65" cy="410.852" r="458.161" gradientTransform="matrix(1 0 0 -1 0 502)" gradientUnits="userSpaceOnUse"><stop offset="0" stop-color="#9dd5f6"/><stop offset=".071" stop-color="#98d3f5"/><stop offset=".158" stop-color="#89cef3"/><stop offset=".252" stop-color="#70c6ef"/><stop offset=".351" stop-color="#4ebbea"/><stop offset=".455" stop-color="#23ade3"/><stop offset=".5" stop-color="#0da6e0"/><stop offset="1" stop-color="#2e77bc"/></radialGradient><path id="XMLID_20_" d="M494.7 5.6H6.5v490h488.2V333.9c1.9-2.8 2.9-6.4 2.9-10.8 0-5-1-8.1-2.9-10.7" fill="url(#XMLID_37_)"/><path class="st1" d="M50.5 217.6l-9.4-22.9-9.3 22.9m225.6-9.1c-1.9 1.1-4.1 1.2-6.8 1.2H234v-12.8h16.9c2.4 0 4.9.1 6.5 1 1.8.8 2.9 2.6 2.9 5.1 0 2.5-1.1 4.6-2.9 5.5zm119 9.1l-9.5-22.9-9.4 22.9h18.9zm-221.7 24.8h-14.1l-.1-45-19.9 45h-12l-20-45v45H60.7l-5.3-12.8H26.9l-5.3 12.8H6.7L31.2 185h20.4L75 239.3V185h22.4l18 38.9 16.5-38.9h22.8v57.4zm56 0h-45.8V185h45.8v12h-32.1v10.3H210V219h-31.3v11.5h32.1v11.9zm64.7-42c0 9.2-6.1 13.9-9.7 15.3 3 1.1 5.6 3.2 6.8 4.8 1.9 2.9 2.3 5.4 2.3 10.5v11.3H261l-.1-7.2c0-3.5.3-8.4-2.2-11.2-2-2-5.1-2.5-10-2.5H234v20.9h-13.7V185h31.6c7 0 12.2.2 16.6 2.7 4.3 2.6 6.9 6.3 6.9 12.7zm21.9 42h-14V185h14v57.4zm162.5 0h-19.4l-26-43.1v43.1h-27.9l-5.3-12.8h-28.5l-5.2 12.8h-16.1c-6.7 0-15.1-1.5-19.9-6.3-4.8-4.9-7.3-11.5-7.3-21.9 0-8.5 1.5-16.3 7.4-22.4 4.4-4.6 11.4-6.7 20.8-6.7h13.3v12.3h-13c-5 0-7.8.7-10.6 3.4-2.3 2.4-3.9 7-3.9 13 0 6.2 1.2 10.6 3.8 13.5 2.1 2.3 6 3 9.6 3h6.2l19.3-45.1h20.6l23.2 54.3V185h20.9l24.1 40v-40H460l-.2 57.4zM6.5 253.6h23.4l5.3-12.8H47l5.3 12.8h46.1v-9.7l4.1 9.8h23.9l4.1-9.9v9.9h114.6l-.1-20.9h2.2c1.6.1 2 .2 2 2.8v18.2h59.3v-4.9c4.8 2.6 12.2 4.9 22 4.9h24.9l5.3-12.8h11.8l5.2 12.8h48.1v-12.1l7.3 12.1H472v-80.1h-38.1v9.5l-5.3-9.5h-39.1v9.5l-4.9-9.5h-52.8c-8.8 0-16.6 1.2-22.9 4.7v-4.7h-36.5v4.7c-4-3.5-9.4-4.7-15.5-4.7H123.6l-8.9 20.7-9.2-20.7h-42v9.5l-4.6-9.5H23.1L6.5 211.6v42zM494.7 296h-25c-2.5 0-4.2.1-5.6 1-1.4.9-2 2.3-2 4.1 0 2.2 1.2 3.6 3 4.3 1.4.5 3 .7 5.3.7l7.4.2c7.5.2 12.5 1.5 15.6 4.6.6.4.9.9 1.3 1.4m0 21.6c-3.3 4.9-9.8 7.3-18.6 7.3h-26.5v-12.3H476c2.6 0 4.5-.3 5.6-1.4 1-.9 1.6-2.2 1.6-3.7 0-1.7-.7-3-1.7-3.8-1-.9-2.4-1.3-4.8-1.3-12.9-.4-29 .4-29-17.8 0-8.3 5.3-17.1 19.7-17.1h27.3v-11.4h-25.4c-7.7 0-13.2 1.8-17.2 4.7v-4.7h-37.6c-6 0-13.1 1.5-16.4 4.7v-4.7H331v4.7c-5.3-3.9-14.3-4.7-18.5-4.7h-44.2v4.7c-4.2-4.1-13.6-4.7-19.3-4.7h-49.5l-11.3 12.3-10.6-12.3h-74v80.1h72.6l11.7-12.5 11 12.5h44.7v-18.8h4.4c5.9.1 12.9-.1 19.1-2.8v21.6H304v-20.9h1.8c2.3 0 2.5.1 2.5 2.4v18.5h112.1c7.1 0 14.6-1.8 18.7-5.1v5.1h35.6c7.4 0 14.6-1 20.1-3.7v-14.9h-.1zm-54.7-23c2.7 2.8 4.1 6.3 4.1 12.2 0 12.4-7.7 18.1-21.6 18.1h-26.7v-12.3h26.6c2.6 0 4.4-.3 5.6-1.4.9-.9 1.6-2.2 1.6-3.7 0-1.7-.7-3-1.7-3.8-1-.9-2.5-1.3-4.9-1.3-12.8-.4-28.9.4-28.9-17.8 0-8.3 5.2-17.1 19.6-17.1h27.5V296H416c-2.5 0-4.1.1-5.5 1-1.5.9-2.1 2.3-2.1 4.1 0 2.2 1.3 3.6 3 4.3 1.4.5 3 .7 5.3.7l7.4.2c7.7.2 12.8 1.5 15.9 4.6zm-123.8-3.5c-1.8 1.1-4.1 1.2-6.8 1.2h-16.7v-12.9h16.9c2.4 0 4.9.1 6.5 1 1.8.9 2.8 2.7 2.8 5.2.1 2.4-1 4.4-2.7 5.5zm8.3 7.1c3.1 1.1 5.6 3.1 6.7 4.8 1.9 2.8 2.2 5.4 2.3 10.5v11.4h-13.8V334c0-3.5.3-8.6-2.2-11.2-2-2.1-5.1-2.5-10.1-2.5h-14.7v21h-13.8v-57.4h31.7c6.9 0 12 .3 16.5 2.7 4.3 2.6 7.1 6.2 7.1 12.8 0 9-6.1 13.7-9.7 15.1zm17.3-30.7h45.8v11.9h-32.1v10.4h31.4v11.7h-31.4v11.4l32.1.1v11.9h-45.8v-57.4zm-92.6 26.5h-17.7v-14.6h17.9c5 0 8.4 2 8.4 7s-3.3 7.6-8.6 7.6zM217.8 336l-21.1-23.4 21.1-22.6v46zm-54.4-6.8h-33.7v-11.4h30.1v-11.7h-30.1v-10.4h34.4l15 16.7-15.7 16.8zm109.1-26.5c0 16-11.9 19.2-23.9 19.2h-17.1v19.3h-26.7l-16.9-19-17.6 19H116v-57.4h55.2l16.9 18.8 17.5-18.8h43.8c10.9 0 23.1 3 23.1 18.9z"/></g></svg>
